Coordinates
version=1
nRows=4
nColumns=63
inDegrees=yes

Units are S.I. units (second, meters, Newtons, ...)
If the header above contains a line with 'inDegrees', this indicates whether rotational values are in degrees (yes) or radians (no).

endheader
time	pelvis_tilt	pelvis_list	pelvis_rotation	pelvis_tx	pelvis_ty	pelvis_tz	hip_flexion_r	hip_adduction_r	hip_rotation_r	knee_angle_r	knee_angle_r_beta	ankle_angle_r	subtalar_angle_r	mtp_angle_r	hip_flexion_l	hip_adduction_l	hip_rotation_l	knee_angle_l	knee_angle_l_beta	ankle_angle_l	subtalar_angle_l	mtp_angle_l	L5_S1_Flex_Ext	L5_S1_Lat_Bending	L5_S1_axial_rotation	L4_L5_Flex_Ext	L4_L5_Lat_Bending	L4_L5_axial_rotation	L3_L4_Flex_Ext	L3_L4_Lat_Bending	L3_L4_axial_rotation	L2_L3_Flex_Ext	L2_L3_Lat_Bending	L2_L3_axial_rotation	L1_L2_Flex_Ext	L1_L2_Lat_Bending	L1_L2_axial_rotation	L1_T12_Flex_Ext	L1_T12_Lat_Bending	L1_T12_axial_rotation	Abs_r3	Abs_r2	Abs_r1	Abs_t1	Abs_t2	neck_flexion	neck_bending	neck_rotation	arm_flex_r	arm_add_r	arm_rot_r	elbow_flex_r	pro_sup_r	wrist_flex_r	wrist_dev_r	arm_flex_l	arm_add_l	arm_rot_l	elbow_flex_l	pro_sup_l	wrist_flex_l	wrist_dev_l
      1.77586207	     -1.64300920	    -15.15919560	     90.86860607	      0.18050022	      0.99928359	      0.11151097	     12.59666796	     -0.68145251	      0.24921509	      2.82881549	      0.04937214	     28.35909336	     -1.64550441	      0.00000000	     13.44241396	      3.72420140	     11.53267097	      3.34698508	      0.05841591	     22.61931539	    -16.89681876	      0.00000000	      0.02689387	     -0.35453170	      1.26700475	      0.04994460	     -0.47152717	      1.34619255	      0.04418393	     -0.86200838	      1.34619255	      0.03073700	     -0.86200838	      1.10862916	      0.02497364	     -0.72296105	      1.02944136	      0.01536716	     -0.54916961	      0.95025356	      0.19210020	     -4.01053354	      7.04670032	      0.00000000	      0.00000000	     19.67172584	     -4.79133087	     -3.50496813	     12.37668327	     -8.66886437	     58.60271287	     45.86837892	     77.89922833	      4.32050788	      2.95582973	     20.35136156	    -10.55682482	     71.13891847	     50.25069330	     86.56042797	      7.24129266	      1.87896075
      1.79310345	     -1.64939182	    -15.14450799	     90.84938679	      0.18059913	      0.99918731	      0.11133926	     12.56661227	     -0.68165601	      0.31288132	      2.83103652	      0.04941091	     28.21887437	     -1.82953237	      0.00000000	     13.39800650	      3.72175141	     11.55082124	      3.31790715	      0.05790840	     22.65372933	    -16.96394587	      0.00000000	      0.01788242	     -0.35713729	      1.28267433	      0.03320943	     -0.47499260	      1.36284147	      0.02937902	     -0.86834361	      1.36284147	      0.02043781	     -0.86834361	      1.12234004	      0.01660561	     -0.72827436	      1.04217289	      0.01021801	     -0.55320566	      0.96200574	      0.12773231	     -4.04000847	      7.13384980	      0.00000000	      0.00000000	     19.29612218	     -4.44350384	     -4.33258674	     12.44823034	     -8.62395521	     58.42379142	     45.74850775	     79.00752883	      4.93670204	      3.54879462	     20.52934896	    -10.37263984	     71.51840823	     50.09263738	     86.96192661	      7.99836868	      3.60141469
      1.81034483	     -1.71723606	    -15.13941005	     90.69841728	      0.18094826	      0.99918613	      0.11139729	     12.66100130	     -0.75505548	     -0.70486662	      3.00086724	      0.05237501	     28.46616956	     -0.45283896	      0.00000000	     13.37720789	      3.74800398	     11.42910953	      3.29420680	      0.05749475	     22.65424089	    -16.98204529	      0.00000000	      0.01277446	     -0.36715645	      1.31141636	      0.02372346	     -0.48831808	      1.39337988	      0.02098717	     -0.89270420	      1.39337988	      0.01459993	     -0.89270420	      1.14748931	      0.01186237	     -0.74870544	      1.06552579	      0.00729933	     -0.56872534	      0.98356227	      0.09124671	     -4.15334722	      7.29370435	      0.00000000	      0.00000000	     18.93498940	     -3.80902718	     -5.05007027	     12.59032166	     -8.64251289	     58.30865871	     45.80447158	     81.04657979	      4.93683226	      3.45567419	     20.61619403	    -10.25730777	     71.65702918	     49.99805510	     87.32658176	      8.61052529	      5.24707236
      1.82758621	     -1.79740089	    -15.13247306	     90.45523940	      0.18142394	      0.99922055	      0.11153775	     12.77160367	     -0.82155795	     -1.57058201	      3.15366057	      0.05504176	     28.77108213	      0.88633456	      0.00000000	     13.36809348	      3.77052666	     11.27840147	      3.29651156	      0.05753498	     22.66746960	    -17.05504744	      0.00000000	      0.01501791	     -0.37769785	      1.34902929	      0.02788976	     -0.50233814	      1.43334362	      0.02467292	     -0.91833455	      1.43334362	      0.01716397	     -0.91833455	      1.18040063	      0.01394563	     -0.77020146	      1.09608630	      0.00858123	     -0.58505397	      1.01177196	      0.10727141	     -4.27259363	      7.50289618	      0.00000000	      0.00000000	     18.56469750	     -2.96713727	     -5.49270690	     12.79857667	     -8.76235517	     58.53135746	     45.96932559	     82.44969561	      4.33760748	      2.76944404	     20.75656613	    -10.15876063	     71.92085597	     49.74199599	     87.54493650	      8.90507978	      5.86935075
